HIERARCHY
ROOT Hips
{
    OFFSET 0.000000 0.000000 0.000000
    CHANNELS 6 Xposition Yposition Zposition Zrotation Xrotation Yrotation
    JOINT Spine
    {
        OFFSET -0.000000 8.267054 0.000000
        CHANNELS 3 Zrotation Xrotation Yrotation
        JOINT Spine1
        {
            OFFSET -0.000000 23.684998 0.000000
            CHANNELS 3 Zrotation Xrotation Yrotation
            JOINT Neck
            {
                OFFSET -0.000000 23.587730 2.144339
                CHANNELS 3 Zrotation Xrotation Yrotation
                JOINT Head
                {
                    OFFSET -0.000000 14.114483 -2.016355
                    CHANNELS 3 Zrotation Xrotation Yrotation
                    End Site
                    {
                        OFFSET -0.000000 25.204432 0.000000
                    }
                }
            }
            JOINT LeftShoulder
            {
                OFFSET 4.070090 22.062094 -0.247321
                CHANNELS 3 Zrotation Xrotation Yrotation
                JOINT LeftArm
                {
                    OFFSET 10.395479 0.000000 0.000000
                    CHANNELS 3 Zrotation Xrotation Yrotation
                    JOINT LeftForeArm
                    {
                        OFFSET 37.713577 0.000000 0.000000
                        CHANNELS 3 Zrotation Xrotation Yrotation
                        JOINT LeftHand
                        {
                            OFFSET 20.284107 0.000000 0.000000
                            CHANNELS 3 Zrotation Xrotation Yrotation
                            End Site
                            {
                                OFFSET 15.122660 0.000000 0.000000
                            }
                        }
                    }
                }
            }
            JOINT RightShoulder
            {
                OFFSET -3.979272 22.062094 -0.247321
                CHANNELS 3 Zrotation Xrotation Yrotation
                JOINT RightArm
                {
                    OFFSET -10.395479 0.000000 0.000000
                    CHANNELS 3 Zrotation Xrotation Yrotation
                    JOINT RightForeArm
                    {
                        OFFSET -37.713577 0.000000 0.000000
                        CHANNELS 3 Zrotation Xrotation Yrotation
                        JOINT RightHand
                        {
                            OFFSET -20.284107 0.000000 0.000000
                            CHANNELS 3 Zrotation Xrotation Yrotation
                            End Site
                            {
                                OFFSET -15.122660 0.000000 0.000000
                            }
                        }
                    }
                }
            }
        }
    }
    JOINT LeftUpLeg
    {
        OFFSET 10.081773 0.000000 0.000000
        CHANNELS 3 Zrotation Xrotation Yrotation
        JOINT LeftLeg
        {
            OFFSET -0.000000 -36.382099 0.000000
            CHANNELS 3 Zrotation Xrotation Yrotation
            JOINT LeftFoot
            {
                OFFSET -0.000000 -49.182560 0.000000
                CHANNELS 3 Zrotation Xrotation Yrotation
                JOINT LeftToeBase
                {
                    OFFSET -0.000000 -6.553152 15.122660
                    CHANNELS 3 Zrotation Xrotation Yrotation
                    End Site
                    {
                        OFFSET -0.000000 0.000000 4.032709
                    }
                }
            }
        }
    }
    JOINT RightUpLeg
    {
        OFFSET -10.081773 0.000000 0.000000
        CHANNELS 3 Zrotation Xrotation Yrotation
        JOINT RightLeg
        {
            OFFSET -0.000000 -36.382099 0.000000
            CHANNELS 3 Zrotation Xrotation Yrotation
            JOINT RightFoot
            {
                OFFSET -0.000000 -49.182560 0.000000
                CHANNELS 3 Zrotation Xrotation Yrotation
                JOINT RightToeBase
                {
                    OFFSET -0.000000 -6.553152 15.122660
                    CHANNELS 3 Zrotation Xrotation Yrotation
                    End Site
                    {
                        OFFSET -0.000000 0.000000 4.032709
                    }
                }
            }
        }
    }
}
MOTION
Frames:    5
Frame Time:    0.008333
25.951866    90.773186    -100.979599    1.128839    2.570624    1.200359    -1.034194    -4.667748    0.963284    0.597828    -0.721521    1.009242    -2.630136    21.462885    -14.571071    14.395517    4.737847    -13.887553    3.931035    4.987408    -8.309331    -68.742996    65.453362    -10.860361    2.742660    -17.861694    -21.193027    6.765150    -16.865223    8.957565    -3.798929    5.972701    -1.450437    64.157722    51.852905    11.803845    0.236917    -11.386659    21.277889    2.299188    -11.455509    -1.255991    -5.312004    -28.798235    -3.848402    0.698218    16.077084    13.037101    2.611392    0.714045    -5.685778    0.000000    0.000000    0.000000    0.736564    8.152252    -1.319021    1.386069    18.908220    9.084730    2.577055    -12.532077    -4.132409    0.000000    0.000000    0.000000    
26.054832    90.743813    -100.317970    1.280904    2.569093    1.068671    -1.171557    -4.806372    1.021865    0.600105    -0.678969    1.074656    -2.587202    21.472881    -14.594155    14.365201    4.791414    -13.919619    4.076320    5.621098    -7.981676    -67.218323    65.449669    -12.656269    2.628960    -17.775784    -20.898357    6.621335    -16.823418    8.837854    -3.805345    6.004478    -1.489084    64.268188    51.655769    11.735300    0.275215    -11.340835    21.005659    2.310270    -11.415299    -1.209798    -5.533934    -28.552786    -3.945235    0.705342    16.238234    12.990697    2.888757    0.927997    -5.664678    0.000000    0.000000    0.000000    0.476631    8.307260    -1.312500    1.349928    19.270054    8.916771    2.986619    -12.159947    -3.684597    0.000000    0.000000    0.000000    
26.165577    90.732002    -99.645172    1.457917    2.565258    0.923312    -1.332253    -4.951891    1.082294    0.601872    -0.635783    1.143270    -2.546602    21.483402    -14.614948    14.334986    4.869388    -13.952432    4.243932    6.442608    -7.577366    -65.234245    65.408745    -14.966116    2.505806    -17.686802    -20.579367    6.441991    -16.783241    8.703845    -3.812060    6.032567    -1.521106    64.396263    51.475185    11.644114    0.313144    -11.303288    20.733562    2.330691    -11.383190    -1.164419    -5.790878    -28.236080    -4.051777    0.751345    16.281984    12.950377    3.100750    1.154123    -5.657213    0.000000    0.000000    0.000000    0.185902    8.392568    -1.359106    1.284871    19.742586    8.760825    3.443505    -11.680374    -3.181411    0.000000    0.000000    0.000000    
26.285727    90.738640    -98.945114    1.662225    2.557253    0.764689    -1.520526    -5.106407    1.143071    0.605261    -0.589222    1.214012    -2.511128    21.491131    -14.633040    14.307352    4.980997    -13.986509    4.414832    7.374156    -7.131902    -63.017315    65.303490    -17.538767    2.374851    -17.586452    -20.238262    6.225877    -16.735945    8.551746    -3.819374    6.058944    -1.546592    64.539978    51.310356    11.533013    0.350825    -11.276056    20.458443    2.359585    -11.361296    -1.121512    -6.087319    -27.844246    -4.177406    0.831636    16.230865    12.930640    3.253696    1.394256    -5.673730    0.000000    0.000000    0.000000    -0.142233    8.401818    -1.455821    1.193901    20.348873    8.590073    3.955773    -11.063425    -2.595515    0.000000    0.000000    0.000000    
26.403231    90.761551    -98.275795    1.871873    2.543783    0.611001    -1.718331    -5.254681    1.196916    0.611194    -0.542594    1.278715    -2.481823    21.494356    -14.648849    14.286152    5.112428    -14.020225    4.540803    8.127228    -6.773823    -61.319698    65.148262    -19.529249    2.260314    -17.473778    -19.919779    5.995627    -16.672907    8.397055    -3.826099    6.084944    -1.564415    64.679863    51.174316    11.419536    0.386186    -11.261880    20.206743    2.391308    -11.352128    -1.087844    -6.388105    -27.421661    -4.329171    0.918065    16.124529    12.953067    3.359790    1.630432    -5.710966    0.000000    0.000000    0.000000    -0.475532    8.336987    -1.584066    1.090611    21.036627    8.417834    4.466228    -10.357098    -1.990799    0.000000    0.000000    0.000000    
